<svg width="24" height="24" viewBox="0 0 24 24" fill="none" xmlns="http://www.w3.org/2000/svg">
<g id="ice-cream 1">
<path id="Vector" d="M6.216 11.868C6.21657 12.2892 6.38388 12.6929 6.68134 12.9911C6.9788 13.2892 7.38221 13.4574 7.80336 13.459C7.69196 13.6413 7.63215 13.8504 7.63032 14.064V14.28C7.62965 14.5468 7.72038 14.8058 7.88741 15.0138C8.05444 15.2218 8.28769 15.3664 8.54832 15.4234L10.344 20.9206C10.4113 21.1241 10.5413 21.3011 10.7154 21.4261C10.8895 21.5511 11.0988 21.6178 11.3131 21.6166H12.685C12.8993 21.6178 13.1086 21.5511 13.2827 21.4261C13.4568 21.3011 13.5868 21.1241 13.6541 20.9206L15.451 15.4224C15.7116 15.3656 15.945 15.2213 16.1122 15.0135C16.2794 14.8056 16.3703 14.5468 16.3699 14.28V14.064C16.3683 13.8502 16.308 13.6409 16.1957 13.459C16.617 13.4578 17.0207 13.2897 17.3184 12.9915C17.6161 12.6933 17.7835 12.2893 17.784 11.868V11.7744C17.7836 11.5084 17.7036 11.2485 17.5543 11.0283C17.4051 10.8081 17.1934 10.6376 16.9464 10.5386C17.1516 10.2233 17.2728 9.86084 17.2988 9.48554C17.3247 9.11024 17.2544 8.73454 17.0945 8.39401C16.8732 7.92217 16.4912 7.5445 16.0169 7.32865C16.0762 7.05371 16.1061 6.77326 16.1062 6.49201C16.1062 5.40292 15.6735 4.35844 14.9034 3.58834C14.1333 2.81824 13.0888 2.3856 11.9998 2.3856C10.9107 2.3856 9.8662 2.81824 9.0961 3.58834C8.326 4.35844 7.89336 5.40292 7.89336 6.49201C7.89341 6.77359 7.92342 7.05437 7.98288 7.32961C7.69465 7.46202 7.43829 7.65494 7.23124 7.89525C7.02419 8.13555 6.8713 8.41761 6.78296 8.72226C6.69461 9.02691 6.67289 9.34701 6.71926 9.6608C6.76563 9.97459 6.879 10.2747 7.05168 10.5408C6.80546 10.6399 6.59442 10.8103 6.44555 11.03C6.29668 11.2498 6.21676 11.509 6.216 11.7744V11.868ZM13.1074 20.742C13.0785 20.8305 13.022 20.9075 12.9461 20.9614C12.8702 21.0153 12.779 21.0434 12.6859 21.0415H11.3141C11.2212 21.0425 11.1303 21.0141 11.0546 20.9602C10.9789 20.9063 10.9222 20.8299 10.8926 20.7418L9.16608 15.4594H14.8339L13.1074 20.742ZM15.7939 14.28C15.7948 14.4345 15.7357 14.5832 15.6289 14.6948C15.5221 14.8065 15.3761 14.8722 15.2218 14.8781C15.2182 14.8781 15.2146 14.8793 15.211 14.8795H15.2054C15.195 14.8802 15.1846 14.8815 15.1742 14.8834H8.82576C8.81552 14.8816 8.80518 14.8805 8.7948 14.88H8.78904C8.78544 14.88 8.78184 14.88 8.77824 14.8786C8.62381 14.8726 8.47774 14.8069 8.37095 14.6952C8.26416 14.5834 8.20504 14.4345 8.20608 14.28V14.064C8.20577 13.9815 8.22249 13.8998 8.2552 13.824C8.28791 13.7482 8.33589 13.68 8.39616 13.6236C8.50862 13.5188 8.65647 13.4604 8.81016 13.4599H15.1898C15.2658 13.4593 15.3412 13.4736 15.4116 13.5022C15.482 13.5308 15.546 13.573 15.6 13.6265C15.6612 13.6817 15.7101 13.7492 15.7434 13.8246C15.7768 13.9 15.7938 13.9816 15.7934 14.064L15.7939 14.28ZM12.0024 2.9592C12.9384 2.96092 13.8355 3.33383 14.4969 3.99612C15.1583 4.65842 15.53 5.55602 15.5304 6.49201C15.5304 6.71423 15.5087 6.93592 15.4656 7.15392C15.4534 7.15176 15.4399 7.15104 15.4274 7.14936C15.4114 7.14697 15.3946 7.14553 15.378 7.14361C15.2824 7.13181 15.1863 7.12572 15.09 7.12537C15.0489 7.12463 15.0079 7.12752 14.9674 7.13401C14.5607 7.1495 14.1675 7.28347 13.836 7.51944C13.5931 7.68133 13.3859 7.89124 13.2271 8.13625C12.8629 7.89487 12.4357 7.76614 11.9988 7.76614C11.5619 7.76614 11.1347 7.89487 10.7705 8.13625C10.5665 7.82921 10.2906 7.57663 9.96676 7.40046C9.64295 7.22429 9.28101 7.12985 8.9124 7.12537C8.81758 7.12575 8.72286 7.13168 8.62872 7.14313C8.61096 7.14529 8.59272 7.14697 8.57544 7.14961C8.55816 7.15225 8.54712 7.15225 8.53344 7.15465C8.49017 6.93642 8.46838 6.71448 8.4684 6.49201C8.46948 5.55517 8.8422 4.65704 9.50475 3.99471C10.1673 3.33238 11.0656 2.95997 12.0024 2.9592ZM8.41056 7.77912C8.4204 7.776 8.42928 7.77049 8.43888 7.76641L8.35728 7.49592L8.47008 7.75224L8.47248 7.75753C8.70476 7.69557 8.94777 7.6851 9.18452 7.72685C9.42127 7.76859 9.64604 7.86155 9.84312 7.99921C10.0973 8.16785 10.2965 8.40733 10.416 8.68801C10.4343 8.73051 10.4626 8.76797 10.4984 8.79723C10.5342 8.82649 10.5766 8.84669 10.6219 8.85611C10.6672 8.86552 10.7141 8.86389 10.7587 8.85134C10.8032 8.83879 10.844 8.81569 10.8778 8.78401C11.1826 8.49946 11.584 8.3412 12.001 8.3412C12.4179 8.3412 12.8194 8.49946 13.1242 8.78401C13.148 8.80567 13.1753 8.82304 13.205 8.83537C13.212 8.83849 13.219 8.84161 13.2262 8.84425C13.2554 8.85476 13.2861 8.86059 13.3171 8.86153H13.321C13.3773 8.86135 13.4323 8.84469 13.4792 8.81359C13.5261 8.7825 13.5629 8.73834 13.585 8.68657C13.7058 8.40264 13.9075 8.16057 14.165 7.99057C14.4133 7.81325 14.7089 7.71421 15.0139 7.70617C15.0322 7.70561 15.0503 7.70336 15.0682 7.69945H15.0922C15.238 7.69708 15.3835 7.7155 15.5242 7.75417L15.552 7.76185C15.5644 7.76781 15.5773 7.77294 15.5904 7.7772C15.805 7.84432 16.0033 7.95532 16.1727 8.10315C16.342 8.25098 16.4789 8.43241 16.5744 8.63593C16.6765 8.85375 16.7294 9.09136 16.7294 9.33193C16.7314 9.67102 16.627 10.0022 16.4309 10.2789C16.2349 10.5555 15.957 10.7638 15.6365 10.8744C15.464 10.9448 15.2789 10.9793 15.0926 10.9759C14.6955 10.9769 14.312 10.8311 14.0158 10.5665C13.998 10.5491 13.979 10.533 13.9589 10.5185C13.8956 10.4725 13.8168 10.4529 13.7393 10.464C13.6938 10.4707 13.6504 10.4875 13.6123 10.5133C13.5742 10.539 13.5423 10.5731 13.5192 10.6128C13.5134 10.6224 13.5074 10.6334 13.5017 10.6418C13.4884 10.6583 13.4771 10.6762 13.4678 10.6951C13.357 10.9242 13.1937 11.1239 12.9913 11.2782C12.789 11.4324 12.5531 11.5369 12.3029 11.5831C12.2938 11.5846 12.2848 11.5866 12.276 11.5891C12.1868 11.6093 12.0952 11.6174 12.0038 11.6131C11.6955 11.6141 11.3932 11.5278 11.132 11.3641C10.8707 11.2004 10.6612 10.966 10.5276 10.6882C10.5196 10.6713 10.5099 10.6552 10.4988 10.6402L10.4966 10.6356C10.4887 10.62 10.4806 10.6044 10.4726 10.5902C10.4512 10.5546 10.4222 10.524 10.3878 10.5006C10.3534 10.4772 10.3143 10.4615 10.2732 10.4547C10.2322 10.4478 10.1901 10.45 10.15 10.4609C10.1098 10.4719 10.0725 10.4915 10.0406 10.5182C10.0219 10.5321 10.0042 10.5474 9.98784 10.5641C9.69436 10.8319 9.3109 10.9795 8.9136 10.9776C8.52253 10.9787 8.14397 10.8398 7.84635 10.5862C7.54872 10.3325 7.35166 9.98068 7.29079 9.59437C7.22992 9.20806 7.30925 8.81273 7.51444 8.47981C7.71963 8.14689 8.03715 7.89835 8.4096 7.77912H8.41056ZM6.792 11.7744C6.79132 11.587 6.86083 11.4061 6.98684 11.2673C7.11285 11.1285 7.28625 11.042 7.47288 11.0246C7.48488 11.0347 7.49688 11.0436 7.51008 11.0537C7.53264 11.0719 7.55544 11.0897 7.57872 11.1072C7.61072 11.1309 7.64272 11.1538 7.67472 11.1761C7.69872 11.1922 7.72272 11.2078 7.74672 11.2241C7.78008 11.2447 7.81416 11.2642 7.84848 11.2829C7.87248 11.2968 7.89888 11.3105 7.9248 11.3232C7.95984 11.3407 7.9968 11.3566 8.03184 11.3712C8.05824 11.3825 8.08416 11.394 8.1108 11.4043C8.148 11.4187 8.18568 11.431 8.2236 11.4434C8.25024 11.4521 8.27664 11.4612 8.30376 11.4689C8.34336 11.4802 8.38392 11.489 8.42376 11.4982C8.44968 11.5039 8.47536 11.5106 8.50176 11.5154C8.54664 11.5238 8.592 11.5294 8.6376 11.5351C8.66016 11.5378 8.68224 11.5418 8.70504 11.544C8.77344 11.5502 8.84232 11.5538 8.91192 11.5538C9.3492 11.5542 9.77646 11.4229 10.1381 11.177C10.3381 11.4897 10.6138 11.7467 10.9398 11.9241C11.2657 12.1016 11.6313 12.1937 12.0024 12.192C12.1419 12.196 12.2812 12.1816 12.4169 12.149C12.7105 12.0931 12.9897 11.9779 13.2373 11.8105C13.4848 11.643 13.6957 11.4268 13.8569 11.1751C14.2208 11.4225 14.6509 11.5545 15.091 11.5538C15.3488 11.558 15.6048 11.51 15.8436 11.4127C15.911 11.3887 15.9766 11.3616 16.0409 11.3316C16.0625 11.3218 16.0829 11.31 16.1042 11.2992C16.1465 11.2778 16.1885 11.2558 16.2295 11.2315C16.2535 11.2174 16.2758 11.2022 16.2986 11.1874C16.3361 11.1634 16.3728 11.1394 16.4086 11.1118C16.4311 11.0952 16.4532 11.0779 16.475 11.0602C16.4914 11.0472 16.5086 11.0362 16.5247 11.022C16.7117 11.0402 16.8852 11.1274 17.0115 11.2664C17.1378 11.4055 17.2078 11.5866 17.208 11.7744V11.868C17.2077 12.1372 17.1006 12.3952 16.9103 12.5855C16.72 12.7758 16.462 12.8829 16.1928 12.8832H7.8072C7.53805 12.8829 7.28002 12.7758 7.0897 12.5855C6.89938 12.3952 6.79232 12.1372 6.792 11.868V11.7744Z" fill="black"/>
<path id="Vector_2" d="M8.47053 7.752C8.46069 7.75776 8.44965 7.76136 8.43933 7.76616C8.45025 7.76267 8.46072 7.75792 8.47053 7.752Z" fill="black"/>
</g>
</svg>
