<svg width="24" height="24" viewBox="0 0 24 24" fill="none" xmlns="http://www.w3.org/2000/svg">
<g id="love 1">
<path id="Vector" d="M18.888 9.976C19.092 9.312 19.2 8.64 19.2 7.976C19.2 5.404 17.228 3.312 14.8 3.312C13.148 3.312 11.632 4.212 10.8 5.62C9.96802 4.212 8.45202 3.312 6.80002 3.312C4.37202 3.312 2.40002 5.404 2.40002 7.976C2.40002 13.84 10.276 18.104 10.612 18.284C10.672 18.316 10.736 18.332 10.8 18.332C10.864 18.332 10.928 18.316 10.988 18.284C11 18.276 11.288 18.124 11.744 17.84C13.344 19.52 15.272 20.568 15.412 20.64C15.472 20.672 15.536 20.688 15.6 20.688C15.664 20.688 15.728 20.672 15.788 20.64C16.024 20.516 21.6 17.492 21.6 13.32C21.6 11.628 20.42 10.228 18.888 9.976ZM10.8 17.472C9.61202 16.792 3.20002 12.884 3.20002 7.976C3.20002 5.844 4.81602 4.112 6.80002 4.112C8.14002 4.112 9.78002 4.908 10.424 6.692C10.48 6.852 10.632 6.956 10.8 6.956C10.968 6.956 11.12 6.852 11.176 6.692C11.82 4.908 13.46 4.112 14.8 4.112C16.784 4.112 18.4 5.844 18.4 7.976C18.4 8.632 18.28 9.296 18.052 9.956C17.056 10.06 16.156 10.612 15.6 11.444C14.98 10.516 13.932 9.932 12.8 9.932C11.036 9.932 9.60002 11.452 9.60002 13.32C9.60002 14.796 10.296 16.124 11.204 17.232C11.04 17.332 10.9 17.416 10.8 17.472ZM15.6 19.828C14.644 19.272 10.4 16.616 10.4 13.32C10.4 11.892 11.476 10.732 12.8 10.732C13.696 10.732 14.792 11.264 15.224 12.46C15.28 12.62 15.432 12.724 15.6 12.724C15.768 12.724 15.92 12.62 15.976 12.46C16.408 11.268 17.504 10.732 18.4 10.732C19.724 10.732 20.8 11.892 20.8 13.32C20.8 16.616 16.556 19.272 15.6 19.828Z" fill="black"/>
</g>
</svg>
